<svg xmlns="http://www.w3.org/2000/svg" xmlns:xlink="http://www.w3.org/1999/xlink" version="1.1" width="256" height="256" viewBox="0 0 256 256" xml:space="preserve">

<defs>
</defs>
<g style="stroke: none; stroke-width: 0; stroke-dasharray: none; stroke-linecap: butt; stroke-linejoin: miter; stroke-miterlimit: 10; fill: none; fill-rule: nonzero; opacity: 1;" transform="translate(1.4065934065934016 1.4065934065934016) scale(2.81 2.81)" >
	<path d="M 2.961 5.245 L 2.961 5.245 c 2.615 -2.615 6.855 -2.615 9.47 0 l 24.996 24.996 l -9.47 9.47 L 2.961 14.715 C 0.346 12.1 0.346 7.86 2.961 5.245 z" style="stroke: none; stroke-width: 1; stroke-dasharray: none; stroke-linecap: butt; stroke-linejoin: miter; stroke-miterlimit: 10; fill: rgb(160,82,45); fill-rule: nonzero; opacity: 1;" transform=" matrix(1 0 0 1 0 0) " stroke-linecap="round" />
	<path d="M 89 81.814 L 89 81.814 L 37.428 30.241 L 20.943 46.725 L 50.868 76.65 C 60.486 86.268 79.896 90.918 89 81.814 z" style="stroke: none; stroke-width: 1; stroke-dasharray: none; stroke-linecap: butt; stroke-linejoin: miter; stroke-miterlimit: 10; fill: rgb(207,216,220); fill-rule: nonzero; opacity: 1;" transform=" matrix(1 0 0 1 0 0) " stroke-linecap="round" />
	<path d="M 27.958 40.711 c -0.256 0 -0.512 -0.098 -0.707 -0.293 L 2.254 15.421 C 0.801 13.968 0 12.036 0 9.979 c 0 -2.056 0.801 -3.988 2.254 -5.442 c 3 -3.001 7.882 -3.001 10.884 0 l 24.997 24.997 c 0.188 0.188 0.293 0.442 0.293 0.707 s -0.105 0.52 -0.293 0.707 l -9.47 9.47 C 28.469 40.613 28.213 40.711 27.958 40.711 z M 7.696 4.286 c -1.459 0 -2.917 0.555 -4.028 1.666 C 2.593 7.028 2 8.458 2 9.979 s 0.593 2.952 1.668 4.028 l 24.289 24.29 l 8.056 -8.056 l -24.29 -24.29 C 10.613 4.841 9.155 4.286 7.696 4.286 z" style="stroke: none; stroke-width: 1; stroke-dasharray: none; stroke-linecap: butt; stroke-linejoin: miter; stroke-miterlimit: 10; fill: rgb(0,0,0); fill-rule: nonzero; opacity: 1;" transform=" matrix(1 0 0 1 0 0) " stroke-linecap="round" />
	<path d="M 75.486 87.727 c -1.764 0 -3.611 -0.161 -5.527 -0.488 c -7.486 -1.276 -14.888 -4.971 -19.799 -9.882 L 20.236 47.433 c -0.391 -0.391 -0.391 -1.023 0 -1.414 l 16.484 -16.484 c 0.391 -0.391 1.023 -0.391 1.414 0 l 51.572 51.572 c 0.391 0.391 0.391 1.023 0 1.414 C 86.283 85.944 81.348 87.727 75.486 87.727 z M 22.357 46.726 l 29.217 29.217 c 4.629 4.629 11.628 8.115 18.721 9.324 c 7.17 1.226 13.255 -0.011 17.266 -3.479 L 37.428 31.655 L 22.357 46.726 z" style="stroke: none; stroke-width: 1; stroke-dasharray: none; stroke-linecap: butt; stroke-linejoin: miter; stroke-miterlimit: 10; fill: rgb(0,0,0); fill-rule: nonzero; opacity: 1;" transform=" matrix(1 0 0 1 0 0) " stroke-linecap="round" />
	<circle cx="10.424" cy="12.704" r="1.734" style="stroke: none; stroke-width: 1; stroke-dasharray: none; stroke-linecap: butt; stroke-linejoin: miter; stroke-miterlimit: 10; fill: rgb(0,0,0); fill-rule: nonzero; opacity: 1;" transform="  matrix(1 0 0 1 0 0) "/>
	<circle cx="25.914" cy="28.194000000000003" r="1.734" style="stroke: none; stroke-width: 1; stroke-dasharray: none; stroke-linecap: butt; stroke-linejoin: miter; stroke-miterlimit: 10; fill: rgb(0,0,0); fill-rule: nonzero; opacity: 1;" transform="  matrix(1 0 0 1 0 0) "/>
	<circle cx="18.164" cy="20.454" r="1.734" style="stroke: none; stroke-width: 1; stroke-dasharray: none; stroke-linecap: butt; stroke-linejoin: miter; stroke-miterlimit: 10; fill: rgb(0,0,0); fill-rule: nonzero; opacity: 1;" transform="  matrix(1 0 0 1 0 0) "/>
	<path d="M 84.1 83.188 c -8.91 0 -18.192 -3.434 -23.857 -9.099 L 44.423 58.271 c -0.391 -0.391 -0.391 -1.023 0 -1.414 s 1.023 -0.391 1.414 0 l 15.819 15.818 c 6.327 6.327 17.507 9.679 27.188 8.15 c 0.544 -0.092 1.058 0.286 1.144 0.831 c 0.087 0.546 -0.286 1.058 -0.831 1.144 C 87.503 83.063 85.808 83.188 84.1 83.188 z" style="stroke: none; stroke-width: 1; stroke-dasharray: none; stroke-linecap: butt; stroke-linejoin: miter; stroke-miterlimit: 10; fill: rgb(0,0,0); fill-rule: nonzero; opacity: 1;" transform=" matrix(1 0 0 1 0 0) " stroke-linecap="round" />
	<path d="M 39.751 53.186 c -0.256 0 -0.512 -0.098 -0.707 -0.293 l -5.038 -5.039 c -0.391 -0.391 -0.391 -1.023 0 -1.414 s 1.023 -0.391 1.414 0 l 5.038 5.039 c 0.391 0.391 0.391 1.023 0 1.414 C 40.263 53.088 40.007 53.186 39.751 53.186 z" style="stroke: none; stroke-width: 1; stroke-dasharray: none; stroke-linecap: butt; stroke-linejoin: miter; stroke-miterlimit: 10; fill: rgb(0,0,0); fill-rule: nonzero; opacity: 1;" transform=" matrix(1 0 0 1 0 0) " stroke-linecap="round" />
</g>
</svg>